<!-- icon666.com - MILLIONS vector ICONS FREE --><svg id="svg8" viewBox="0 0 16.933333 16.933333" xmlns="http://www.w3.org/2000/svg" xmlns:svg="http://www.w3.org/2000/svg"><g id="layer1" transform="translate(0 -280.067)"><path id="path828" d="m31.998047 2c-5.274805.0030992-10.449403 1.4156968-15.003906 4.0625a2.0001999 2.0001999 0 1 0 2.011718 3.4570312c3.950869-2.2959874 8.433593-3.5168099 12.996094-3.5195312 14.381661-.0075591 25.998047 11.616894 25.998047 26 0 14.383068-11.616908 26-26 26-14.383093 0-26.006426-11.61799-26-26 .0020387-4.56291 1.2191522-9.044824 3.5117188-12.996094a2.0005934 2.0005934 0 1 0 -3.4609376-2.007812c-2.6434056 4.555994-4.0484254 9.731238-4.0507812 15.003906-.0073928 16.545903 13.455147 30 30 30s30-13.455156 30-30c0-16.544882-13.455672-30.0098268-30.001953-30zm.001953 8.001953c-6.603722 0-12.001945 5.390399-12.001953 11.994141-.000008 3.094259 1.195489 5.914997 3.134765 8.048828-5.101655.443151-9.132812 4.742377-9.132812 9.955078v4.037109c.000296.432515.14078.853283.400391 1.199219 3.994496 5.327584 10.375603 8.759766 17.599609 8.759766 7.223095 0 13.604868-3.431135 17.599609-8.757813.259611-.345936.400095-.766703.400391-1.199219v-4.039062c0-5.212044-4.030117-9.511009-9.130859-9.955078 1.939013-2.133775 3.134774-4.954805 3.134765-8.048828-.000007-6.603742-5.400186-11.994141-12.003906-11.994141zm0 4c4.441963 0 8.001949 3.552175 8.001953 7.994141.000011 4.441965-3.559978 8.001953-8.001953 8.001953s-8.001964-3.559988-8.001953-8.001953c.000005-4.441966 3.55999-7.994141 8.001953-7.994141zm-8 19.998047h16c3.358594 0 6 2.641436 6 6v3.263672c-3.280286 4.091263-8.250788 6.732422-14 6.732422-5.749939 0-10.719705-2.641978-14-6.734375v-3.261719c0-3.358564 2.641407-6 6-6z" fill-rule="evenodd" transform="matrix(.265 0 0 .265 0 280.067)" font-variant-ligatures="normal" font-variant-position="normal" font-variant-caps="normal" font-variant-numeric="normal" font-variant-alternates="normal" font-feature-settings="normal" text-indent="0" text-align="start" text-decoration-line="none" text-decoration-style="solid" text-decoration-color="rgb(0,0,0)" text-transform="none" text-orientation="mixed" white-space="normal" shape-padding="0" isolation="auto" mix-blend-mode="normal" solid-color="rgb(0,0,0)" solid-opacity="1" vector-effect="none" paint-order="stroke fill markers" fill="#000000" style="fill: rgb(210, 0, 148);"></path></g></svg>